<svg width="171" height="60" viewBox="0 0 171 60" fill="none" xmlns="http://www.w3.org/2000/svg">
<g clip-path="url(#clip0_55563_56)">
<path d="M59 54.0409C50.6 56.0574 42.4 58.0136 34 60C35 59.0971 35.8 58.3447 36.65 57.5923C38.15 56.238 39.6 54.8836 41.1 53.5594C41.3 53.3788 41.8 53.1982 42.2 53.1681C44.9 53.108 47.6 53.1381 50.3 53.0177C53.25 52.8973 56 53.4089 59 54.0409Z" fill="#001B21"/>
<path d="M59.8916 27.2096V30.0139C59.8916 46.5895 46.4222 60.0555 29.8765 60.0278C13.4416 59.9722 0.0554169 46.534 -1.26379e-05 30.0694C-0.0554421 13.4938 13.4139 0 29.9596 0C37.6366 0 44.9533 2.91532 50.524 8.19065C51.3 8.91254 52.0206 9.68996 52.7134 10.4951C52.852 10.634 52.9074 10.8283 52.9074 10.9949C52.9074 11.217 52.8243 11.4391 52.6303 11.6057L47.9465 15.6039C47.6139 15.8815 47.1151 15.8538 46.8379 15.5206C46.339 14.9375 45.7847 14.3545 45.2305 13.8269C41.101 9.91208 35.6689 7.74641 29.9873 7.74641C17.7374 7.74641 7.76012 17.7418 7.76012 30.0139C7.76012 42.286 17.7374 52.2813 29.9873 52.2813C40.7684 52.2813 50.0251 44.4516 51.8543 33.901H46.6162C46.8933 32.6515 47.0596 31.3466 47.0596 30.0416C47.0596 28.7367 46.9211 27.404 46.6162 26.1546H58.8661C59.4204 26.1268 59.8916 26.5988 59.8916 27.2096Z" fill="white"/>
<path d="M36.6943 36.4831C35.0037 38.2601 32.5925 39.3707 29.9596 39.3707C26.911 39.3707 24.1949 37.8991 22.4766 35.6224C22.0886 35.0949 21.7283 34.5118 21.4512 33.901H19.428C17.3771 33.901 15.7419 35.5669 15.7419 37.5937V39.4817C15.7974 39.565 15.8528 39.6761 15.9359 39.7594C19.0123 44.2295 24.1672 47.1449 29.9873 47.1449C34.2554 47.1449 38.1355 45.5623 41.1287 42.9801C44.7593 39.8427 47.0596 35.2059 47.0596 30.0417C47.0596 20.6016 39.4103 12.9385 29.9873 12.9385C27.5207 12.9385 25.1095 13.466 22.8923 14.4655C22.3935 14.6877 22.2272 15.2985 22.5321 15.7427L26.0241 20.8237C26.2458 21.1291 26.6338 21.268 26.9941 21.1569C27.9364 20.8515 28.9342 20.6849 29.9596 20.6849C35.1146 20.6849 39.2995 24.8774 39.2995 30.0417C39.2995 32.5127 38.3017 34.7895 36.6943 36.4831Z" fill="url(#paint0_linear_55563_56)"/>
<path d="M16.7397 26.1268H27.7701C28.1027 26.1268 28.4076 26.2934 28.5739 26.5711L32.4817 32.3462C32.9251 33.0125 32.4539 33.901 31.6779 33.901H21.4512H19.428C17.3771 33.901 15.7419 35.5669 15.7419 37.5937V39.4818C13.9405 36.7608 12.8873 33.5123 12.8873 30.0139C12.8873 27.8483 14.6056 26.1268 16.7397 26.1268Z" fill="#FC9D74"/>
<path d="M59.3373 35.7858H14.3373V53.7858H59.3373V35.7858Z" fill="#99B0B8"/>
<path d="M20.3373 39.7858H24.2313C25.0022 39.7858 25.5759 39.8199 25.9524 39.8881C26.3334 39.9518 26.6723 40.0882 26.9691 40.2974C27.2704 40.5065 27.5207 40.7862 27.72 41.1364C27.9194 41.482 28.0191 41.8708 28.0191 42.3028C28.0191 42.7712 27.895 43.201 27.6469 43.592C27.4033 43.9831 27.071 44.2764 26.6502 44.472C27.2438 44.6493 27.7001 44.9518 28.0191 45.3792C28.338 45.8067 28.4975 46.3092 28.4975 46.8867C28.4975 47.3415 28.3934 47.7849 28.1852 48.2169C27.9814 48.6443 27.7001 48.9877 27.3413 49.2469C26.9869 49.5015 26.5483 49.6584 26.0255 49.7176C25.6977 49.7539 24.9069 49.7767 23.6532 49.7858H20.3373V39.7858ZM22.3042 41.4502V43.7626H23.5934C24.3598 43.7626 24.836 43.7512 25.0221 43.7285C25.3588 43.6875 25.6224 43.5693 25.8129 43.3738C26.0078 43.1737 26.1053 42.9122 26.1053 42.5893C26.1053 42.2801 26.0211 42.03 25.8528 41.839C25.6888 41.6434 25.443 41.5252 25.1151 41.4843C24.9202 41.4615 24.3598 41.4502 23.4339 41.4502H22.3042ZM22.3042 45.427V48.1009H24.125C24.8338 48.1009 25.2835 48.0804 25.474 48.0395C25.7664 47.9849 26.0034 47.8531 26.185 47.6439C26.3711 47.4302 26.4641 47.1459 26.4641 46.7912C26.4641 46.4911 26.3932 46.2364 26.2515 46.0272C26.1097 45.8181 25.9037 45.6657 25.6335 45.5702C25.3677 45.4747 24.7873 45.427 23.8924 45.427H22.3042Z" fill="#003A4D"/>
<path d="M30.1655 49.7858V39.7858H37.3887V41.4774H32.1324V43.6944H37.0233V45.3792H32.1324V48.1009H37.5748V49.7858H30.1655Z" fill="#003A4D"/>
<path d="M41.4356 49.7858V41.4774H38.545V39.7858H46.2866V41.4774H43.4026V49.7858H41.4356Z" fill="#003A4D"/>
<path d="M55.3373 49.7858H53.1975L52.347 47.5143H48.4529L47.6488 49.7858H45.5623L49.3566 39.7858H51.4366L55.3373 49.7858ZM51.7157 45.8294L50.3734 42.1186L49.0576 45.8294H51.7157Z" fill="#003A4D"/>
<path d="M101.907 16.2147V21.1569H81.7585C80.3728 21.1569 79.2365 22.2952 79.2365 23.6835V26.2379H96.9739V31.18H79.2088V43.8408H74.331V23.6835C74.331 19.5743 77.629 16.2147 81.7308 16.2147H101.907ZM105.787 43.8408V16.2147H110.72V43.8408H105.787ZM136.911 38.982L139.433 43.9241H133.918L131.396 38.982L128.763 33.8177L128.652 33.5678C127.793 32.1518 126.241 31.2078 124.467 31.2078H119.534V43.9241H114.6V16.298H132.005C134.056 16.298 135.913 17.131 137.243 18.4637C138.574 19.7964 139.405 21.6566 139.405 23.7113C139.405 26.7099 137.631 29.3198 135.082 30.5137C134.417 30.8191 133.696 31.0134 132.948 31.0967L136.911 38.982ZM132.033 26.2656C132.393 26.2656 132.754 26.1823 133.059 26.0157C133.973 25.627 134.555 24.7108 134.555 23.739C134.555 22.8228 134.084 22.2119 133.807 21.9343C133.502 21.6289 132.892 21.2124 132.033 21.2124H119.534V26.2934L132.033 26.2656ZM171 16.2147V43.8408H166.067V26.2379L161.217 29.9584L157.198 33.068L153.179 29.9584L148.329 26.2379V43.8408H143.396V16.2147L148.357 19.9908L157.226 26.8209L166.094 19.9908L171 16.2147Z" fill="white"/>
</g>
<defs>
<linearGradient id="paint0_linear_55563_56" x1="17.3949" y1="27.7873" x2="46.7703" y2="32.9576" gradientUnits="userSpaceOnUse">
<stop stop-color="#DB5A00"/>
<stop offset="0.1201" stop-color="#FF9966"/>
</linearGradient>
<clipPath id="clip0_55563_56">
<rect width="171" height="60" fill="white"/>
</clipPath>
</defs>
</svg>
