<svg width="171" height="60" viewBox="0 0 171 60" fill="none" xmlns="http://www.w3.org/2000/svg">
<g clip-path="url(#clip0_55555_65954)">
<path d="M101.907 16.2147V21.1569H81.7585C80.3727 21.1569 79.2364 22.2952 79.2364 23.6835V26.2379H96.9739V31.18H79.2087V43.8408H74.3309V23.6835C74.3309 19.5743 77.629 16.2147 81.7308 16.2147H101.907ZM105.787 43.8408V16.2147H110.72V43.8408H105.787ZM136.911 38.982L139.433 43.9241H133.918L131.396 38.982L128.763 33.8177L128.652 33.5678C127.793 32.1518 126.241 31.2078 124.467 31.2078H119.534V43.9241H114.6V16.298H132.005C134.056 16.298 135.913 17.131 137.243 18.4637C138.574 19.7964 139.405 21.6566 139.405 23.7113C139.405 26.7099 137.631 29.3198 135.082 30.5137C134.417 30.8191 133.696 31.0134 132.948 31.0967L136.911 38.982ZM132.033 26.2656C132.393 26.2656 132.754 26.1823 133.058 26.0157C133.973 25.627 134.555 24.7108 134.555 23.739C134.555 22.8228 134.084 22.2119 133.807 21.9343C133.502 21.6289 132.892 21.2124 132.033 21.2124H119.534V26.2934L132.033 26.2656ZM171 16.2147V43.8408H166.067V26.2379L161.217 29.9584L157.198 33.068L153.179 29.9584L148.329 26.2379V43.8408H143.396V16.2147L148.357 19.9908L157.226 26.8209L166.094 19.9908L171 16.2147Z" fill="#003A4D"/>
<path d="M59 54.0409C50.6 56.0574 42.4 58.0136 34 60C35 59.0971 35.8 58.3447 36.65 57.5923C38.15 56.238 39.6 54.8836 41.1 53.5594C41.3 53.3788 41.8 53.1982 42.2 53.1681C44.9 53.108 47.6 53.1381 50.3 53.0177C53.25 52.8973 56 53.4089 59 54.0409Z" fill="#CEDFE4"/>
<path d="M59.8915 27.2096V30.0139C59.8915 46.5895 46.4221 60.0555 29.8764 60.0278C13.4416 59.9722 0.0553558 46.534 -7.3673e-05 30.0694C-0.0555032 13.4938 13.4139 0 29.9596 0C37.6366 0 44.9532 2.91532 50.5239 8.19065C51.2999 8.91254 52.0205 9.68996 52.7134 10.4951C52.8519 10.634 52.9074 10.8283 52.9074 10.9949C52.9074 11.217 52.8242 11.4391 52.6302 11.6057L47.9464 15.6039C47.6139 15.8815 47.115 15.8538 46.8378 15.5206C46.339 14.9375 45.7847 14.3545 45.2304 13.8269C41.1009 9.91208 35.6688 7.74641 29.9873 7.74641C17.7374 7.74641 7.76006 17.7418 7.76006 30.0139C7.76006 42.286 17.7374 52.2813 29.9873 52.2813C40.7683 52.2813 50.025 44.4516 51.8542 33.901H46.6161C46.8933 32.6515 47.0596 31.3466 47.0596 30.0416C47.0596 28.7367 46.921 27.404 46.6161 26.1546H58.866C59.4203 26.1268 59.8915 26.5988 59.8915 27.2096Z" fill="#003A4D"/>
<path d="M36.6943 36.4831C35.0037 38.2601 32.5925 39.3707 29.9596 39.3707C26.911 39.3707 24.1949 37.8991 22.4766 35.6224C22.0886 35.0949 21.7283 34.5118 21.4512 33.901H19.428C17.3771 33.901 15.7419 35.5669 15.7419 37.5937V39.4817C15.7974 39.565 15.8528 39.6761 15.9359 39.7594C19.0123 44.2295 24.1672 47.1449 29.9873 47.1449C34.2554 47.1449 38.1355 45.5623 41.1287 42.9801C44.7593 39.8427 47.0596 35.2059 47.0596 30.0417C47.0596 20.6016 39.4103 12.9385 29.9873 12.9385C27.5207 12.9385 25.1095 13.466 22.8923 14.4655C22.3935 14.6877 22.2272 15.2985 22.5321 15.7427L26.0241 20.8237C26.2458 21.1291 26.6338 21.268 26.9941 21.1569C27.9364 20.8515 28.9342 20.6849 29.9596 20.6849C35.1146 20.6849 39.2995 24.8774 39.2995 30.0417C39.2995 32.5127 38.3017 34.7895 36.6943 36.4831Z" fill="url(#paint0_linear_55555_65954)"/>
<path d="M16.7397 26.1268H27.7701C28.1027 26.1268 28.4076 26.2934 28.5739 26.5711L32.4817 32.3462C32.9251 33.0125 32.4539 33.901 31.6779 33.901H21.4512H19.428C17.3771 33.901 15.7419 35.5669 15.7419 37.5937V39.4818C13.9405 36.7608 12.8873 33.5123 12.8873 30.0139C12.8873 27.8483 14.6056 26.1268 16.7397 26.1268Z" fill="#FC9D74"/>
<path d="M59.3372 35.7858H14.3372V53.7858H59.3372V35.7858Z" fill="#99B0B8"/>
<path d="M20.3372 39.7858H24.2312C25.0021 39.7858 25.5758 39.8199 25.9523 39.8881C26.3333 39.9518 26.6722 40.0882 26.969 40.2974C27.2703 40.5065 27.5206 40.7862 27.7199 41.1364C27.9193 41.482 28.019 41.8708 28.019 42.3028C28.019 42.7712 27.8949 43.201 27.6468 43.592C27.4032 43.9831 27.0709 44.2764 26.65 44.472C27.2437 44.6493 27.7 44.9518 28.019 45.3792C28.3379 45.8067 28.4974 46.3092 28.4974 46.8867C28.4974 47.3415 28.3933 47.7849 28.1851 48.2169C27.9813 48.6443 27.7 48.9877 27.3411 49.2469C26.9867 49.5015 26.5482 49.6584 26.0254 49.7176C25.6976 49.7539 24.9068 49.7767 23.6531 49.7858H20.3372V39.7858ZM22.3041 41.4502V43.7626H23.5933C24.3597 43.7626 24.8359 43.7512 25.022 43.7285C25.3587 43.6875 25.6223 43.5693 25.8128 43.3738C26.0077 43.1737 26.1051 42.9122 26.1051 42.5893C26.1051 42.2801 26.021 42.03 25.8526 41.839C25.6887 41.6434 25.4428 41.5252 25.115 41.4843C24.9201 41.4615 24.3597 41.4502 23.4338 41.4502H22.3041ZM22.3041 45.427V48.1009H24.1249C24.8337 48.1009 25.2834 48.0804 25.4739 48.0395C25.7662 47.9849 26.0033 47.8531 26.1849 47.6439C26.371 47.4302 26.464 47.1459 26.464 46.7912C26.464 46.4911 26.3931 46.2364 26.2513 46.0272C26.1096 45.8181 25.9036 45.6657 25.6333 45.5702C25.3675 45.4747 24.7872 45.427 23.8923 45.427H22.3041Z" fill="#003A4D"/>
<path d="M30.1653 49.7858V39.7858H37.3886V41.4774H32.1323V43.6944H37.0231V45.3792H32.1323V48.1009H37.5747V49.7858H30.1653Z" fill="#003A4D"/>
<path d="M41.4355 49.7858V41.4774H38.5449V39.7858H46.2865V41.4774H43.4025V49.7858H41.4355Z" fill="#003A4D"/>
<path d="M55.3372 49.7858H53.1974L52.3468 47.5143H48.4528L47.6487 49.7858H45.5621L49.3565 39.7858H51.4365L55.3372 49.7858ZM51.7156 45.8294L50.3732 42.1186L49.0575 45.8294H51.7156Z" fill="#003A4D"/>
</g>
<defs>
<linearGradient id="paint0_linear_55555_65954" x1="17.3949" y1="27.7873" x2="46.7703" y2="32.9576" gradientUnits="userSpaceOnUse">
<stop stop-color="#DB5A00"/>
<stop offset="0.1201" stop-color="#FF9966"/>
</linearGradient>
<clipPath id="clip0_55555_65954">
<rect width="171" height="60" fill="white"/>
</clipPath>
</defs>
</svg>
