<svg width="275" height="550" viewBox="0 0 275 550" fill="none" xmlns="http://www.w3.org/2000/svg">
<path d="M549.747 249.306V275C549.747 426.873 426.111 550.254 274.238 550C123.383 549.491 0.510352 426.364 0.00156472 275.509C-0.507223 123.635 123.128 0 275.001 0C345.468 0 412.628 26.7114 463.762 75.0462C470.885 81.6604 477.499 88.7835 483.859 96.1609C485.131 97.4329 485.639 99.2136 485.639 100.74C485.639 102.775 484.876 104.81 483.096 106.337L440.103 142.969C437.05 145.513 432.471 145.259 429.927 142.206C425.348 136.864 420.26 131.522 415.172 126.688C377.268 90.8186 327.406 70.9759 275.256 70.9759C162.814 70.9759 71.2318 162.558 71.2318 275C71.2318 387.442 162.814 479.024 275.256 479.024C374.215 479.024 459.183 407.285 475.973 310.615H427.892C430.436 299.167 431.962 287.211 431.962 275.254C431.962 263.298 430.69 251.087 427.892 239.639H540.334C545.422 239.385 549.747 243.709 549.747 249.306Z" fill="#F2F5F6"/>
<path d="M336.819 334.273C321.301 350.554 299.169 360.73 275.002 360.73C247.018 360.73 222.088 347.247 206.315 326.387C202.754 321.553 199.447 316.211 196.903 310.614H178.332C159.507 310.614 144.498 325.878 144.498 344.449V361.747C145.006 362.511 145.515 363.528 146.278 364.291C174.516 405.249 221.833 431.96 275.256 431.96C314.433 431.96 350.048 417.46 377.522 393.801C410.848 365.055 431.963 322.571 431.963 275.254C431.963 188.76 361.75 118.547 275.256 118.547C252.615 118.547 230.483 123.38 210.131 132.539C205.552 134.574 204.026 140.17 206.824 144.241L238.878 190.795C240.913 193.593 244.474 194.865 247.781 193.847C256.431 191.049 265.589 189.523 275.002 189.523C322.319 189.523 360.732 227.936 360.732 275.254C360.732 297.895 351.574 318.755 336.819 334.273Z" fill="#F2F5F6"/>
<path d="M153.655 239.383H254.904C257.957 239.383 260.755 240.909 262.281 243.453L298.151 296.367C302.221 302.473 297.897 310.613 290.774 310.613H196.902H178.331C159.506 310.613 144.497 325.877 144.497 344.447V361.746C127.961 336.816 118.294 307.052 118.294 274.998C118.294 255.155 134.067 239.383 153.655 239.383Z" fill="#F2F5F6"/>
</svg>
