<svg width="275" height="550" viewBox="0 0 275 550" fill="none" xmlns="http://www.w3.org/2000/svg">
<path d="M274.747 249.306V275C274.747 426.873 151.111 550.254 -0.76181 550C-151.617 549.491 -274.49 426.364 -274.998 275.509C-275.507 123.635 -151.872 0 0.00137329 0C70.4685 0 137.628 26.7114 188.762 75.0462C195.885 81.6604 202.499 88.7835 208.859 96.1609C210.131 97.4329 210.639 99.2136 210.639 100.74C210.639 102.775 209.876 104.81 208.096 106.337L165.103 142.969C162.05 145.513 157.471 145.259 154.927 142.206C150.348 136.864 145.26 131.522 140.172 126.688C102.268 90.8186 52.4065 70.9759 0.255737 70.9759C-112.186 70.9759 -203.768 162.558 -203.768 275C-203.768 387.442 -112.186 479.024 0.255737 479.024C99.215 479.024 184.183 407.285 200.973 310.615H152.892C155.436 299.167 156.962 287.211 156.962 275.254C156.962 263.298 155.69 251.087 152.892 239.639H265.334C270.422 239.385 274.747 243.709 274.747 249.306Z" fill="#F2F5F6"/>
<path d="M61.8193 334.273C46.3013 350.554 24.169 360.73 0.00161743 360.73C-27.9817 360.73 -52.9123 347.247 -68.6847 326.387C-72.2462 321.553 -75.5534 316.211 -78.0973 310.614H-96.6681C-115.493 310.614 -130.502 325.878 -130.502 344.449V361.747C-129.994 362.511 -129.485 363.528 -128.722 364.291C-100.484 405.249 -53.1667 431.96 0.256012 431.96C39.4327 431.96 75.0478 417.46 102.522 393.801C135.848 365.055 156.963 322.571 156.963 275.254C156.963 188.76 86.7499 118.547 0.256012 118.547C-22.385 118.547 -44.5173 123.38 -64.8688 132.539C-69.4479 134.574 -70.9743 140.17 -68.1759 144.241L-36.1223 190.795C-34.0872 193.593 -30.5256 194.865 -27.2185 193.847C-18.5691 191.049 -9.41095 189.523 0.00161743 189.523C47.3189 189.523 85.7324 227.936 85.7324 275.254C85.7324 297.895 76.5742 318.755 61.8193 334.273Z" fill="url(#paint0_linear_57098_526)"/>
<path d="M-121.345 239.383H-20.096C-17.0433 239.383 -14.245 240.909 -12.7186 243.453L23.1509 296.367C27.2212 302.473 22.8966 310.613 15.7735 310.613H-78.0978H-96.6686C-115.494 310.613 -130.503 325.877 -130.503 344.447V361.746C-147.039 336.816 -156.706 307.052 -156.706 274.998C-156.706 255.155 -140.933 239.383 -121.345 239.383Z" fill="#F2F5F6"/>
<defs>
<linearGradient id="paint0_linear_57098_526" x1="-115.33" y1="254.598" x2="154.278" y2="302.137" gradientUnits="userSpaceOnUse">
<stop stop-color="#CDD5D8"/>
<stop offset="0.1201" stop-color="#F2F5F6"/>
</linearGradient>
</defs>
</svg>
