<svg width="302" height="60" viewBox="0 0 302 60" fill="none" xmlns="http://www.w3.org/2000/svg">
<g clip-path="url(#clip0_55555_65972)">
<path d="M79.3013 29.9861C79.3013 34.8727 83.2969 38.8709 88.1804 38.8709H97.0595V33.5956H88.1804V28.6534H101.998V43.813H88.1804C80.5777 43.813 74.3623 37.6215 74.3623 29.9861C74.3623 22.3508 80.5499 16.1592 88.1804 16.1592H101.998V21.1013H88.1804C83.2691 21.1013 79.3013 25.0995 79.3013 29.9861ZM128.663 38.8987V43.8408H114.651C113.264 43.8408 111.96 43.5354 110.794 42.9246C109.046 42.0639 107.631 40.6478 106.799 38.8987C106.216 37.7048 105.883 36.3998 105.883 35.0393V16.2147H110.822V35.5113C111.072 37.2605 112.431 38.621 114.179 38.8709L128.663 38.8987ZM186.849 35.0116C186.849 39.8704 182.909 43.813 178.053 43.813H159.241V16.1592H176.638C180.745 16.1592 184.102 19.5187 184.102 23.6279C184.102 25.1272 183.658 26.5155 182.909 27.6539C185.268 29.2365 186.849 31.9297 186.849 35.0116ZM164.18 26.1546H176.694C178.081 26.1546 179.219 25.0162 179.219 23.6279C179.219 22.2397 178.081 21.1013 176.694 21.1013H164.18V26.1546ZM178.053 38.8709C180.19 38.8709 181.91 37.0939 181.91 34.956C181.91 32.8181 180.162 31.0967 178.053 31.0967H164.18V38.8709H178.053ZM216.4 43.813H210.878L208.353 38.8709L202.304 27.043L196.283 38.8709L193.758 43.813H188.237L190.762 38.8709L202.304 16.1869L213.875 38.8709L216.4 43.813ZM240.484 38.8987V43.8408H226.472C225.085 43.8408 223.781 43.5354 222.615 42.9246C220.867 42.0639 219.452 40.6478 218.62 38.8987C218.037 37.7048 217.704 36.3998 217.704 35.0393V16.2147H222.643V35.5113C222.893 37.2605 224.252 38.621 226 38.8709L240.484 38.8987ZM142.426 16.1592C134.796 16.1592 128.608 22.3508 128.608 29.9861C128.608 37.6215 134.796 43.813 142.426 43.813C150.057 43.813 156.244 37.6215 156.244 29.9861C156.244 22.3508 150.057 16.1592 142.426 16.1592ZM142.426 42.2304C135.684 42.2304 130.217 36.7608 130.217 30.0139C130.217 23.267 135.684 17.7973 142.426 17.7973C149.169 17.7973 154.635 23.267 154.635 30.0139C154.635 36.7608 149.169 42.2304 142.426 42.2304Z" fill="#003A4D"/>
<path d="M142.426 19.4077C136.571 19.4077 131.827 24.1555 131.827 30.0139C131.827 35.8723 136.571 40.6201 142.426 40.6201C148.281 40.6201 153.025 35.8723 153.025 30.0139C153.025 24.1555 148.281 19.4077 142.426 19.4077ZM142.426 37.8436C138.098 37.8436 134.601 34.3452 134.601 30.0139C134.601 25.6825 138.098 22.1841 142.426 22.1841C146.755 22.1841 150.251 25.6825 150.251 30.0139C150.251 34.3452 146.755 37.8436 142.426 37.8436Z" fill="#FC9D74"/>
<path d="M202.277 43.8408C203.886 43.8408 205.19 42.5356 205.19 40.9255C205.19 39.3154 203.886 38.0102 202.277 38.0102C200.668 38.0102 199.363 39.3154 199.363 40.9255C199.363 42.5356 200.668 43.8408 202.277 43.8408Z" fill="url(#paint0_linear_55555_65972)"/>
<path d="M274.225 17.5752C274.225 17.8529 274.142 18.1027 274.003 18.3526L270.257 24.0167C267.732 24.5997 265.568 26.1268 264.153 28.2092L271.645 16.7978C272.061 16.1592 272.949 15.9648 273.587 16.4091C274.003 16.6867 274.225 17.131 274.225 17.5752Z" fill="#FC9D74"/>
<path d="M286.6 22.8783C285.823 23.2948 285.13 23.7945 284.464 24.3498V17.5752C284.464 16.9088 284.936 16.3258 285.574 16.2147C285.657 16.187 285.768 16.187 285.851 16.187H300.585C301.362 16.187 301.972 16.8255 301.972 17.5752C301.972 18.3526 301.334 18.9634 300.585 18.9634H287.266V22.5451C287.044 22.6562 286.822 22.7672 286.6 22.8783ZM292.205 23.7945C292.122 23.7945 292.039 23.7945 291.983 23.7945C290.318 23.7945 288.709 24.211 287.294 24.9607C286.434 25.4327 285.629 26.0157 284.908 26.7376C284.63 27.0153 284.492 27.3485 284.492 27.7094C284.492 27.9315 284.547 28.1536 284.658 28.3758C284.908 28.82 285.379 29.1254 285.879 29.1254C286.24 29.1254 286.6 28.9866 286.878 28.7089C287.017 28.5701 287.155 28.459 287.294 28.3202C288.598 27.1819 290.263 26.571 292.011 26.571C296.007 26.571 299.253 29.8195 299.253 33.8177C299.253 37.8158 296.007 41.0643 292.011 41.0643C289.458 41.0643 287.044 39.6761 285.768 37.4826L281.523 29.5141C281.412 29.292 280.801 28.2647 280.801 28.2369C278.914 25.4604 275.834 23.7945 272.505 23.7945C266.983 23.7945 262.488 28.2925 262.488 33.8177C262.488 33.901 262.488 33.9843 262.488 34.0676C262.627 39.4262 266.9 43.7298 272.283 43.8408C272.366 43.8408 272.449 43.8408 272.505 43.8408C275.169 43.8408 277.694 42.7857 279.58 40.8977C280.024 40.4535 280.108 39.8149 279.83 39.2596C279.58 38.8154 279.109 38.5099 278.609 38.5099C278.248 38.5099 277.888 38.6488 277.61 38.9264C276.917 39.6205 276.14 40.1481 275.252 40.509C274.392 40.87 273.448 41.0643 272.477 41.0643C270.535 41.0643 268.703 40.3147 267.344 38.9542C265.984 37.5937 265.235 35.7612 265.235 33.8177C265.235 29.8195 268.481 26.571 272.477 26.571C275.03 26.571 277.444 27.9593 278.72 30.1527L282.965 38.1212C283.076 38.3434 283.687 39.3707 283.687 39.3984C285.574 42.1749 288.654 43.8408 291.983 43.8408C297.505 43.8408 302 39.3429 302 33.8177C302 33.7344 302 33.6511 302 33.5678C301.861 28.2092 297.588 23.9056 292.205 23.7945ZM253.026 24.9607L258.603 19.0467C258.909 18.7413 259.075 18.3249 259.075 17.8806C259.075 16.9366 258.298 16.187 257.383 16.187H246.062C245.34 16.187 244.73 16.77 244.73 17.5197C244.73 18.2693 245.313 18.8524 246.062 18.8524H246.95H247.033H255.191L249.752 24.5997C249.447 24.9329 249.28 25.3494 249.28 25.8214C249.28 26.7932 250.057 27.5706 251.028 27.5706H251.278C253.221 27.5706 254.858 28.1814 256.217 29.4586C257.577 30.7358 258.243 32.2906 258.243 34.2341C258.243 36.2055 257.577 37.8158 256.217 39.1763C254.885 40.509 253.221 41.2031 251.278 41.2031C249.031 41.2031 246.894 40.0648 245.562 38.1768C245.285 37.7881 244.869 37.5659 244.425 37.5659C244.147 37.5659 243.87 37.6492 243.648 37.8158C243.343 38.0379 243.148 38.3434 243.065 38.7043C243.01 39.0652 243.065 39.454 243.287 39.7594C245.091 42.3693 248.087 43.8963 251.278 43.8963C253.97 43.8963 256.273 42.9246 258.16 41.0366C260.046 39.1763 261.017 36.8996 261.017 34.2064C261.017 31.7075 260.157 29.5419 258.492 27.7927C256.994 26.2101 255.163 25.2938 253.026 24.9607Z" fill="#003A4D"/>
<path d="M59 54.0409C50.6 56.0574 42.4 58.0136 34 60C35 59.0971 35.8 58.3447 36.65 57.5923C38.15 56.238 39.6 54.8836 41.1 53.5594C41.3 53.3788 41.8 53.1982 42.2 53.1681C44.9 53.108 47.6 53.1381 50.3 53.0177C53.25 52.8973 56 53.4089 59 54.0409Z" fill="#CEDFE4"/>
<path d="M59.8915 27.2096V30.0139C59.8915 46.5895 46.4221 60.0555 29.8764 60.0278C13.4416 59.9722 0.0553558 46.534 -7.3673e-05 30.0694C-0.0555032 13.4938 13.4139 0 29.9596 0C37.6366 0 44.9532 2.91532 50.5239 8.19065C51.2999 8.91254 52.0205 9.68996 52.7134 10.4951C52.8519 10.634 52.9074 10.8283 52.9074 10.9949C52.9074 11.217 52.8242 11.4391 52.6302 11.6057L47.9464 15.6039C47.6139 15.8815 47.115 15.8538 46.8378 15.5206C46.339 14.9375 45.7847 14.3545 45.2304 13.8269C41.1009 9.91208 35.6688 7.74641 29.9873 7.74641C17.7374 7.74641 7.76006 17.7418 7.76006 30.0139C7.76006 42.286 17.7374 52.2813 29.9873 52.2813C40.7683 52.2813 50.025 44.4516 51.8542 33.901H46.6161C46.8933 32.6515 47.0596 31.3466 47.0596 30.0416C47.0596 28.7367 46.921 27.404 46.6161 26.1546H58.866C59.4203 26.1268 59.8915 26.5988 59.8915 27.2096Z" fill="#003A4D"/>
<path d="M36.6943 36.4831C35.0037 38.2601 32.5925 39.3707 29.9596 39.3707C26.911 39.3707 24.1949 37.8991 22.4766 35.6224C22.0886 35.0949 21.7283 34.5118 21.4512 33.901H19.428C17.3771 33.901 15.7419 35.5669 15.7419 37.5937V39.4817C15.7974 39.565 15.8528 39.6761 15.9359 39.7594C19.0123 44.2295 24.1672 47.1449 29.9873 47.1449C34.2554 47.1449 38.1355 45.5623 41.1287 42.9801C44.7593 39.8427 47.0596 35.2059 47.0596 30.0417C47.0596 20.6016 39.4103 12.9385 29.9873 12.9385C27.5207 12.9385 25.1095 13.466 22.8923 14.4655C22.3935 14.6877 22.2272 15.2985 22.5321 15.7427L26.0241 20.8237C26.2458 21.1291 26.6338 21.268 26.9941 21.1569C27.9364 20.8515 28.9342 20.6849 29.9596 20.6849C35.1146 20.6849 39.2995 24.8774 39.2995 30.0417C39.2995 32.5127 38.3017 34.7895 36.6943 36.4831Z" fill="url(#paint1_linear_55555_65972)"/>
<path d="M16.7397 26.1268H27.7701C28.1027 26.1268 28.4076 26.2934 28.5739 26.571L32.4817 32.3461C32.9251 33.0125 32.4539 33.9009 31.6779 33.9009H21.4512H19.428C17.3771 33.9009 15.7419 35.5668 15.7419 37.5937V39.4817C13.9405 36.7607 12.8873 33.5122 12.8873 30.0139C12.8873 27.8482 14.6056 26.1268 16.7397 26.1268Z" fill="#FC9D74"/>
<path d="M59.3372 35.7858H14.3372V53.7858H59.3372V35.7858Z" fill="#99B0B8"/>
<path d="M20.3372 39.7858H24.2312C25.0021 39.7858 25.5758 39.8199 25.9523 39.8881C26.3333 39.9518 26.6722 40.0882 26.969 40.2974C27.2703 40.5065 27.5206 40.7862 27.7199 41.1364C27.9193 41.482 28.019 41.8708 28.019 42.3028C28.019 42.7712 27.8949 43.201 27.6468 43.592C27.4032 43.9831 27.0709 44.2764 26.65 44.472C27.2437 44.6493 27.7 44.9518 28.019 45.3792C28.3379 45.8067 28.4974 46.3092 28.4974 46.8867C28.4974 47.3415 28.3933 47.7849 28.1851 48.2169C27.9813 48.6443 27.7 48.9877 27.3411 49.2469C26.9867 49.5015 26.5482 49.6584 26.0254 49.7176C25.6976 49.7539 24.9068 49.7767 23.6531 49.7858H20.3372V39.7858ZM22.3041 41.4502V43.7626H23.5933C24.3597 43.7626 24.8359 43.7512 25.022 43.7285C25.3587 43.6875 25.6223 43.5693 25.8128 43.3738C26.0077 43.1737 26.1051 42.9122 26.1051 42.5893C26.1051 42.2801 26.021 42.03 25.8526 41.839C25.6887 41.6434 25.4428 41.5252 25.115 41.4843C24.9201 41.4615 24.3597 41.4502 23.4338 41.4502H22.3041ZM22.3041 45.427V48.1009H24.1249C24.8337 48.1009 25.2834 48.0804 25.4739 48.0395C25.7662 47.9849 26.0033 47.8531 26.1849 47.6439C26.371 47.4302 26.464 47.1459 26.464 46.7912C26.464 46.4911 26.3931 46.2364 26.2513 46.0272C26.1096 45.8181 25.9036 45.6657 25.6333 45.5702C25.3675 45.4747 24.7872 45.427 23.8923 45.427H22.3041Z" fill="#003A4D"/>
<path d="M30.1653 49.7858V39.7858H37.3886V41.4774H32.1323V43.6944H37.0231V45.3792H32.1323V48.1009H37.5747V49.7858H30.1653Z" fill="#003A4D"/>
<path d="M41.4355 49.7858V41.4774H38.5449V39.7858H46.2865V41.4774H43.4025V49.7858H41.4355Z" fill="#003A4D"/>
<path d="M55.3372 49.7858H53.1974L52.3468 47.5143H48.4528L47.6487 49.7858H45.5621L49.3565 39.7858H51.4365L55.3372 49.7858ZM51.7156 45.8294L50.3732 42.1186L49.0575 45.8294H51.7156Z" fill="#003A4D"/>
</g>
<defs>
<linearGradient id="paint0_linear_55555_65972" x1="202.23" y1="45.5232" x2="202.23" y2="40.1792" gradientUnits="userSpaceOnUse">
<stop stop-color="#DB6A42"/>
<stop offset="1" stop-color="#FF9966"/>
</linearGradient>
<linearGradient id="paint1_linear_55555_65972" x1="17.3949" y1="27.7873" x2="46.7703" y2="32.9576" gradientUnits="userSpaceOnUse">
<stop stop-color="#DB5A00"/>
<stop offset="0.1201" stop-color="#FF9966"/>
</linearGradient>
<clipPath id="clip0_55555_65972">
<rect width="302" height="60" fill="white"/>
</clipPath>
</defs>
</svg>
